# xmcd
#
# Track frame offsets:
#	150
#	11490
#	26565
#	36240
#	52965
#	65037
#	76965
#	87990
#	101565
#	110715
#	123315
#	138840
#	150240
#	161940
#	173790
#	184890
#
# Disc length: 2620 seconds
#
# Revision: 0
# Processed by: cddbd v1.5.2PL0 Copyright (c) Steve Scherf et al.
# Submitted via: audiograbber 1.83.01
#
DISCID=ce0a3a10
DTITLE=Various Artist - Nashville's Finest
DYEAR=1900
DGENRE=Oldies
TTITLE0=Billy Grammer - Gotta Travel On 
TTITLE1=Tommy Cash - The Cowboy And The Lady  
TTITLE2=Dolly Parton - Something Fishy  
TTITLE3=Kris Kristofferson and Rita Coolidge - Rain  
TTITLE4=Ray Price - Feet  
TTITLE5=Henson Cargill - Skip A Rope  
TTITLE6=Jim Glazer - Why Didn't I Think Of That 
TTITLE7=Charlie McCoy - Shenandoah  
TTITLE8=Ed Bruce - Song For Ginny  
TTITLE9=Billy Walker - Sundown Mary 
TTITLE10=Eddy Raven - You're A Dancer 
TTITLE11=Willie Nelson - I Never Cared For You  
TTITLE12=Connie Smith - Lovin' You Baby  
TTITLE13=Lloyd Green - I Can See Clearly Now 
TTITLE14=Roy Orbison - Only The Lonely  
TTITLE15=Bob Moore - Mexico
EXTD=
EXTT0=
EXTT1=
EXTT2=
EXTT3=
EXTT4=
EXTT5=
EXTT6=
EXTT7=
EXTT8=
EXTT9=
EXTT10=
EXTT11=
EXTT12=
EXTT13=
EXTT14=
EXTT15=
PLAYORDER=
